<svg width="25" height="25" viewBox="0 0 25 25" fill="none" xmlns="http://www.w3.org/2000/svg">
<mask id="mask0_102_284" style="mask-type:alpha" maskUnits="userSpaceOnUse" x="0" y="0" width="25" height="25">
<circle cx="12.8293" cy="12.9454" r="12" fill="#D9D9D9"/>
</mask>
<g mask="url(#mask0_102_284)">
<path d="M6.91512 24.8606C5.48783 24.7956 4.71249 24.5581 4.19678 24.357C3.51345 24.0909 3.02627 23.7742 2.51342 23.2621C2.00056 22.7499 1.68315 22.2628 1.41852 21.5794C1.21737 21.0637 0.979849 20.2884 0.91494 18.8611C0.843611 17.3182 0.829346 16.8553 0.829346 12.9465C0.829346 9.03769 0.845038 8.57548 0.914227 7.03121C0.979136 5.60392 1.21809 4.83 1.41781 4.31287C1.68386 3.62954 2.00128 3.14236 2.51271 2.62879C3.02485 2.11665 3.51202 1.79853 4.19606 1.5339C4.71177 1.33275 5.48712 1.09523 6.91441 1.03032C8.45796 0.9597 8.9216 0.945435 12.829 0.945435C16.7378 0.945435 17.2 0.961127 18.7443 1.03032C20.1716 1.09523 20.9455 1.33418 21.4626 1.5339C22.146 1.79853 22.6331 2.11665 23.146 2.62879C23.6588 3.14094 23.9748 3.62882 24.2409 4.31215C24.442 4.82786 24.6796 5.6032 24.7445 7.03049C24.8151 8.57476 24.8293 9.03697 24.8293 12.9458C24.8293 16.8532 24.8151 17.3168 24.7445 18.8611C24.6796 20.2884 24.4406 21.0637 24.2409 21.5794C23.9748 22.2628 23.6581 22.7499 23.146 23.2621C22.6338 23.7742 22.146 24.0909 21.4626 24.357C20.9469 24.5581 20.1716 24.7956 18.7443 24.8606C17.2014 24.9312 16.7378 24.9454 12.829 24.9454C8.9216 24.9454 8.45796 24.9319 6.91512 24.8606Z" fill="url(#paint0_radial_102_284)"/>
</g>
<path d="M10.1064 12.915C10.1064 11.4579 11.2873 10.2765 12.7443 10.2765C14.2014 10.2765 15.3829 11.4579 15.3829 12.915C15.3829 14.3721 14.2014 15.5535 12.7443 15.5535C11.2873 15.5535 10.1064 14.3721 10.1064 12.915M8.68009 12.915C8.68009 15.1597 10.4997 16.9793 12.7443 16.9793C14.989 16.9793 16.8086 15.1597 16.8086 12.915C16.8086 10.6703 14.989 8.85074 12.7443 8.85074C10.4997 8.85074 8.68015 10.6702 8.68015 12.915M16.0198 8.68959C16.0197 8.87745 16.0753 9.0611 16.1796 9.21734C16.2839 9.37357 16.4322 9.49537 16.6057 9.56733C16.7793 9.63929 16.9702 9.65817 17.1545 9.6216C17.3387 9.58502 17.508 9.49463 17.6409 9.36185C17.7738 9.22907 17.8643 9.05987 17.901 8.87564C17.9378 8.69141 17.919 8.50043 17.8472 8.32685C17.7754 8.15327 17.6537 8.00488 17.4976 7.90045C17.3414 7.79603 17.1578 7.74025 16.9699 7.74017H16.9696C16.7178 7.74029 16.4763 7.84034 16.2982 8.01836C16.1201 8.19637 16.02 8.43779 16.0198 8.68959M9.54669 19.3577C8.77501 19.3225 8.35557 19.194 8.07684 19.0854C7.7073 18.9415 7.44364 18.7702 7.16642 18.4934C6.88921 18.2165 6.71761 17.9531 6.57438 17.5836C6.46572 17.305 6.33718 16.8854 6.30211 16.1137C6.26373 15.2794 6.25607 15.0288 6.25607 12.9151C6.25607 10.8014 6.26437 10.5515 6.30211 9.71652C6.33725 8.94484 6.46674 8.5261 6.57438 8.24667C6.71824 7.87713 6.88959 7.61347 7.16642 7.33625C7.44326 7.05904 7.70667 6.88744 8.07684 6.74421C8.35545 6.63556 8.77501 6.50702 9.54669 6.47194C10.381 6.43356 10.6316 6.4259 12.7443 6.4259C14.8571 6.4259 15.108 6.43407 15.943 6.47206C16.7146 6.50721 17.1334 6.6367 17.4128 6.74434C17.7823 6.88757 18.046 7.05955 18.3232 7.33638C18.6004 7.61322 18.7714 7.87726 18.9153 8.2468C19.0239 8.5254 19.1525 8.94496 19.1875 9.71664C19.2259 10.5516 19.2336 10.8016 19.2336 12.9153C19.2336 15.0289 19.2259 15.2789 19.1875 16.1139C19.1524 16.8855 19.0232 17.305 18.9153 17.5837C18.7714 17.9532 18.6001 18.2169 18.3232 18.4935C18.0464 18.7701 17.7823 18.9417 17.4128 19.0855C17.1342 19.1942 16.7146 19.3227 15.943 19.3578C15.1087 19.3962 14.858 19.4038 12.7443 19.4038C10.6307 19.4038 10.3807 19.3962 9.54669 19.3578M9.48115 5.04793C8.63855 5.08631 8.06278 5.21991 7.55996 5.41557C7.03953 5.61762 6.59838 5.8887 6.15786 6.32852C5.71735 6.76834 5.44697 7.20955 5.24491 7.73061C5.04926 8.23375 4.91565 8.8092 4.87728 9.6518C4.83827 10.4957 4.82935 10.7655 4.82935 12.915C4.82935 15.0645 4.83827 15.3343 4.87728 16.1782C4.91565 17.0209 5.04926 17.5962 5.24491 18.0994C5.44697 18.6198 5.71741 19.0619 6.15786 19.5015C6.59832 19.9411 7.0389 20.2118 7.55996 20.4144C8.06373 20.6101 8.63855 20.7437 9.48115 20.7821C10.3255 20.8204 10.5949 20.83 12.7443 20.83C14.8938 20.83 15.1636 20.8211 16.0075 20.7821C16.8502 20.7437 17.4256 20.6101 17.9287 20.4144C18.4492 20.2118 18.8903 19.9413 19.3308 19.5015C19.7713 19.0617 20.0412 18.6198 20.2438 18.0994C20.4394 17.5962 20.5737 17.0208 20.6114 16.1782C20.6498 15.3336 20.6587 15.0645 20.6587 12.915C20.6587 10.7655 20.6498 10.4957 20.6114 9.6518C20.573 8.80914 20.4394 8.23344 20.2438 7.73061C20.0412 7.21018 19.7706 6.76903 19.3308 6.32852C18.891 5.888 18.4492 5.61762 17.9294 5.41557C17.4256 5.21991 16.8501 5.08567 16.0082 5.04793C15.1641 5.00937 14.8944 5 12.7453 5C10.5962 5 10.3258 5.00893 9.48147 5.04793" fill="white"/>
<defs>
<radialGradient id="paint0_radial_102_284" cx="0" cy="0" r="1" gradientUnits="userSpaceOnUse" gradientTransform="translate(2.3826 24.4197) scale(30.4711)">
<stop offset="0.09" stop-color="#FA8F21"/>
<stop offset="0.78" stop-color="#D82D7E"/>
</radialGradient>
</defs>
</svg>
