<?xml version="1.0" encoding="utf-8"?>
<!-- Generator: Adobe Illustrator 24.0.0, SVG Export Plug-In . SVG Version: 6.00 Build 0)  -->
<svg version="1.1" id="Layer_1" xmlns="http://www.w3.org/2000/svg" xmlns:xlink="http://www.w3.org/1999/xlink" x="0px" y="0px"
	 viewBox="0 0 200 40" style="enable-background:new 0 0 200 40;" xml:space="preserve">
<style type="text/css">
	.st0{fill:#00C73C;}
</style>
<g>
	<path class="st0" d="M55.6,27.8c1,0,2-0.1,2.9-0.2c1-0.2,1.8-0.4,2.5-0.7v2.4c-0.7,0.3-1.5,0.5-2.6,0.7c-1,0.2-2.1,0.2-3.2,0.2H50
		V9.1h10.1v2.4h-7.4v16.3H55.6z M71.7,8.3v23.3h-2.6V20.2h-3.8v11h-2.6V8.4h2.6v9.3h3.8V8.3H71.7z"/>
	<path class="st0" d="M91.3,12.7H75.5v-2.2H82V7.9h2.7v2.6h6.5V12.7z M79.8,23c-1-0.4-1.9-0.9-2.5-1.7c-0.6-0.7-0.9-1.6-0.9-2.6
		c0-1,0.3-1.8,0.9-2.6c0.6-0.7,1.4-1.3,2.5-1.7s2.2-0.6,3.5-0.6c1.3,0,2.5,0.2,3.5,0.6s1.9,0.9,2.5,1.6c0.6,0.7,0.9,1.6,0.9,2.6
		c0,1-0.3,1.9-0.9,2.6c-0.6,0.7-1.4,1.3-2.5,1.6c-1,0.4-2.2,0.6-3.5,0.6C82.1,23.6,80.9,23.4,79.8,23z M79.9,28.9h17.4v2.4H77.2
		v-6.4h2.7V28.9z M80.3,16.8c-0.8,0.5-1.2,1.2-1.2,1.9c0,0.8,0.4,1.5,1.2,2c0.8,0.5,1.8,0.8,3.1,0.8c1.3,0,2.3-0.2,3.1-0.8
		c0.8-0.5,1.2-1.2,1.2-2c0-0.8-0.4-1.4-1.2-1.9c-0.8-0.5-1.8-0.8-3.1-0.8C82.1,16.1,81.1,16.3,80.3,16.8z M99.9,14.7v2.6h-3.3v8.5
		h-2.7V8.3h2.7v6.4H99.9z"/>
	<path class="st0" d="M125.1,26.7h-10.3v5.5H112v-5.5h-10.2v-2.5h23.3V26.7z M123.9,21.5h-20.4V9h20.1v2.4h-17.4v2.7h17.1v2.3h-17.1
		v2.7h17.7V21.5z"/>
	<path class="st0" d="M150,8.3v23.3h-2.7V20.5h-4.5c-0.1,3.3-0.8,5.8-2,7.5c-1.2,1.7-2.9,2.5-4.9,2.5c-2.1,0-3.8-0.9-5.1-2.7
		c-1.3-1.8-1.9-4.5-1.9-8.1c0-3.6,0.6-6.3,1.9-8.1c1.3-1.8,2.9-2.7,5.1-2.7c1.9,0,3.5,0.8,4.7,2.3c1.2,1.5,1.9,3.8,2.1,6.8h4.5V8.3
		H150z M139,25.9c0.8-1.4,1.2-3.5,1.2-6.3c0-2.8-0.4-4.9-1.2-6.3c-0.8-1.4-1.8-2.1-3.1-2.1c-1.3,0-2.3,0.7-3.1,2.1
		c-0.8,1.4-1.2,3.5-1.2,6.3c0,2.8,0.4,4.9,1.2,6.3c0.8,1.4,1.8,2.1,3.1,2.1C137.2,28,138.2,27.3,139,25.9z"/>
</g>
</svg>
