<?xml version="1.0" encoding="utf-8"?>
<!-- Generator: Adobe Illustrator 24.0.0, SVG Export Plug-In . SVG Version: 6.00 Build 0)  -->
<svg version="1.1" id="Layer_1" xmlns="http://www.w3.org/2000/svg" xmlns:xlink="http://www.w3.org/1999/xlink" x="0px" y="0px"
	 viewBox="0 0 150 50" style="enable-background:new 0 0 150 50;" xml:space="preserve">
<style type="text/css">
	.st0{fill:#AFAFAF;}
</style>
<g>
	<path class="st0" d="M21.35,34.4c-0.45,0.13-0.78,0.08-0.98-0.16s-0.31-0.51-0.34-0.8c-0.29-2.19-0.57-4.29-0.84-6.3
		c-0.27-2.01-0.56-4.06-0.88-6.14c-0.03-0.11-0.04-0.23-0.04-0.36c0-0.13,0-0.27,0-0.4c-0.61,0.93-1.19,1.93-1.74,2.98
		c-0.55,1.05-1.05,2.18-1.5,3.38c-0.24,0.45-0.67,0.63-1.28,0.52c-0.53-0.11-0.88-0.28-1.04-0.52c-0.16-0.24-0.19-0.49-0.08-0.76
		c0.24-0.72,0.59-1.55,1.04-2.48c0.45-0.93,0.99-1.91,1.6-2.94c0.61-1.03,1.29-2.04,2.04-3.04c0.75-1,1.55-1.93,2.4-2.78
		c0.05-0.05,0.14-0.12,0.26-0.2s0.25-0.15,0.38-0.22c0.13-0.07,0.29-0.1,0.46-0.1c0.17,0,0.35,0.05,0.54,0.16
		c0.29,0.19,0.47,0.45,0.52,0.8c0.05,0.35-0.08,0.71-0.4,1.08c-0.4,0.45-0.79,0.91-1.16,1.36c-0.37,0.45-0.75,0.93-1.12,1.44
		c0.21,0.03,0.48,0.13,0.8,0.32c0.32,0.19,0.55,0.56,0.68,1.12c0.4,2.03,0.73,4.09,0.98,6.2c0.25,2.11,0.49,4.21,0.7,6.32
		c0.05,0.45-0.03,0.8-0.26,1.04C21.86,34.16,21.62,34.32,21.35,34.4z M33.47,29.48c-0.16,0.03-0.31,0-0.46-0.08
		c-0.15-0.08-0.28-0.19-0.4-0.32c-0.12-0.13-0.21-0.27-0.28-0.42c-0.07-0.15-0.1-0.29-0.1-0.42l-0.64-6.64
		c-0.48,0.19-1,0.41-1.56,0.68c-0.56,0.27-1.13,0.55-1.7,0.84c-0.57,0.29-1.13,0.59-1.66,0.88c-0.53,0.29-1,0.56-1.4,0.8
		c-0.35,0.21-0.68,0.32-1,0.32c-0.32,0-0.55-0.11-0.68-0.32c-0.13-0.29-0.09-0.63,0.14-1c0.23-0.37,0.43-0.67,0.62-0.88
		c0.29-0.32,0.73-0.66,1.32-1.02c0.59-0.36,1.21-0.73,1.88-1.1c0.67-0.37,1.34-0.73,2.02-1.06c0.68-0.33,1.27-0.62,1.78-0.86
		l-0.2-2.2c-0.05-0.51,0.08-0.84,0.4-1c0.21-0.11,0.43-0.14,0.66-0.1s0.43,0.13,0.6,0.26c0.17,0.13,0.33,0.29,0.46,0.48
		c0.13,0.19,0.21,0.36,0.24,0.52c0.4,1.84,0.67,3.73,0.82,5.68c0.15,1.95,0.22,3.8,0.22,5.56C34.55,28.91,34.19,29.37,33.47,29.48z"
		/>
	<path class="st0" d="M49.03,27.48c0.37,0,0.71,0.06,1.02,0.18c0.31,0.12,0.53,0.29,0.68,0.5c0.15,0.21,0.19,0.47,0.14,0.76
		c-0.05,0.29-0.24,0.6-0.56,0.92c-0.43,0.45-0.84,0.9-1.24,1.34c-0.4,0.44-0.79,0.93-1.16,1.46c0.93-0.05,1.72-0.01,2.36,0.12
		c0.37,0.08,0.69,0.21,0.96,0.4c0.27,0.19,0.46,0.41,0.58,0.66c0.12,0.25,0.17,0.51,0.16,0.78c-0.01,0.27-0.1,0.51-0.26,0.72
		c-0.29,0.4-0.62,0.83-0.98,1.3c-0.36,0.47-0.72,0.94-1.08,1.42c-0.36,0.48-0.7,0.94-1.02,1.38c-0.32,0.44-0.57,0.83-0.76,1.18
		c0.99-0.35,1.98-0.77,2.98-1.28c1-0.51,1.9-0.95,2.7-1.32c0.32-0.16,0.61-0.24,0.88-0.24c0.27,0,0.51,0.03,0.72,0.08
		c0.21,0.05,0.35,0.27,0.42,0.66c0.07,0.39-0.06,0.71-0.38,0.98c-1.12,0.85-2.42,1.65-3.9,2.4c-1.48,0.75-2.97,1.39-4.46,1.92
		c-0.8,0.19-1.44,0.01-1.92-0.52c-0.19-0.21-0.32-0.51-0.4-0.88c-0.08-0.37-0.05-0.71,0.08-1c0.61-1.2,1.33-2.35,2.14-3.44
		c0.81-1.09,1.65-2.15,2.5-3.16c-0.67,0.03-1.29,0.09-1.88,0.2c-0.59,0.11-1.08,0.19-1.48,0.24c-0.53,0.08-0.94-0.01-1.22-0.28
		c-0.28-0.27-0.26-0.72,0.06-1.36c0.29-0.61,0.7-1.25,1.22-1.9s1.03-1.23,1.54-1.74c-0.61,0.13-1.27,0.33-1.96,0.58
		c-0.69,0.25-1.28,0.49-1.76,0.7c-0.24,0.11-0.47,0.15-0.68,0.12c-0.21-0.03-0.4-0.09-0.56-0.2s-0.29-0.23-0.4-0.38
		c-0.11-0.15-0.17-0.29-0.2-0.42c-0.05-0.29,0.02-0.55,0.22-0.78c0.2-0.23,0.45-0.41,0.74-0.54c0.27-0.13,0.53-0.25,0.78-0.36
		c0.25-0.11,0.51-0.2,0.78-0.28c-0.13-1.2-0.2-2.27-0.2-3.2s0.23-1.75,0.68-2.44c-0.93,0.21-1.87,0.41-2.8,0.58
		c-0.93,0.17-1.85,0.3-2.76,0.38c-0.16,0.03-0.37,0.04-0.64,0.04c-0.27,0-0.53-0.03-0.78-0.08c-0.25-0.05-0.48-0.16-0.68-0.32
		c-0.2-0.16-0.34-0.4-0.42-0.72c-0.05-0.27,0.06-0.52,0.34-0.76c0.28-0.24,0.65-0.4,1.1-0.48c2.43-0.43,4.7-0.87,6.82-1.32
		c2.12-0.45,4.22-1.03,6.3-1.72c0.32-0.11,0.64-0.13,0.96-0.08c0.32,0.05,0.52,0.27,0.6,0.64c0.08,0.32-0.05,0.63-0.4,0.94
		c-0.35,0.31-0.69,0.53-1.04,0.66c-0.77,0.35-1.6,0.67-2.48,0.98c-0.88,0.31-1.79,0.61-2.72,0.9c0.21,0.21,0.36,0.47,0.44,0.76
		c0.08,0.29,0.15,0.59,0.2,0.88c0.03,0.43,0.01,0.95-0.06,1.58c-0.07,0.63-0.07,1.33-0.02,2.1C47.59,27.61,48.31,27.53,49.03,27.48z
		 M46.63,9.32c0.45,0.24,0.68,0.76,0.68,1.56s-0.19,1.65-0.56,2.56c-0.19,0.48-0.44,0.97-0.76,1.48c-0.32,0.51-0.69,0.95-1.12,1.32
		c-0.43,0.37-0.9,0.67-1.42,0.9s-1.07,0.3-1.66,0.22c-0.4-0.05-0.73-0.21-0.98-0.48c-0.25-0.27-0.45-0.57-0.58-0.92
		c-0.13-0.35-0.21-0.72-0.24-1.12c-0.03-0.4-0.01-0.76,0.04-1.08c0.03-0.43,0.11-0.87,0.26-1.34c0.15-0.47,0.33-0.93,0.56-1.38
		c0.23-0.45,0.49-0.89,0.78-1.3c0.29-0.41,0.6-0.78,0.92-1.1c0.43-0.43,0.86-0.71,1.3-0.86c0.44-0.15,0.83-0.15,1.18-0.02
		c0.21,0.08,0.39,0.25,0.52,0.5c0.13,0.25,0.12,0.58-0.04,0.98c0.13-0.08,0.32-0.11,0.56-0.08C46.31,9.19,46.5,9.24,46.63,9.32z
		 M42.63,14.36c0.35-0.05,0.68-0.25,1-0.6c0.32-0.35,0.59-0.73,0.8-1.16c0.21-0.37,0.4-0.8,0.56-1.28s0.24-1.03,0.24-1.64
		c-0.37,0.29-0.72,0.64-1.04,1.04c-0.32,0.4-0.59,0.83-0.8,1.28c-0.19,0.37-0.35,0.77-0.48,1.18
		C42.78,13.59,42.68,13.99,42.63,14.36z"/>
	<path class="st0" d="M63.63,37.88c-0.53,0.08-0.89-0.02-1.08-0.3c-0.19-0.28-0.33-0.62-0.44-1.02c-0.16-0.56-0.28-1.24-0.36-2.04
		c-0.08-0.8-0.13-1.63-0.14-2.5c-0.01-0.87-0.01-1.7,0.02-2.5c0.03-0.8,0.07-1.48,0.12-2.04c-0.8,0.16-1.61,0.33-2.44,0.52
		c-0.83,0.19-1.71,0.39-2.64,0.6c-0.53,0.13-1.05,0.19-1.56,0.18c-0.51-0.01-0.83-0.22-0.96-0.62c-0.13-0.37,0.01-0.73,0.42-1.08
		c0.41-0.35,0.89-0.6,1.42-0.76c0.4-0.11,1.03-0.29,1.9-0.54s1.87-0.5,3-0.74s2.34-0.45,3.62-0.64c1.28-0.19,2.52-0.28,3.72-0.28
		c0.4,0.03,0.73,0.17,0.98,0.42c0.25,0.25,0.38,0.53,0.38,0.82c0,0.24-0.13,0.43-0.4,0.56c-0.27,0.13-0.48,0.21-0.64,0.24
		c-0.91,0.16-1.77,0.31-2.58,0.46s-1.62,0.3-2.42,0.46c0.43,0.43,0.64,0.93,0.64,1.52c-0.03,0.4-0.03,0.99-0.02,1.76
		c0.01,0.77,0.03,1.57,0.06,2.38c0.03,0.81,0.06,1.59,0.1,2.32c0.04,0.73,0.07,1.26,0.1,1.58c0.03,0.35-0.05,0.63-0.22,0.84
		C64.04,37.69,63.84,37.83,63.63,37.88z M63.27,23.6c-0.21,0-0.37-0.07-0.48-0.22c-0.11-0.15-0.18-0.32-0.22-0.52
		c-0.04-0.2-0.06-0.4-0.06-0.6c0-0.2,0-0.35,0-0.46c0.05-1.2,0.12-2.43,0.2-3.7s0.11-2.61,0.08-4.02c-1.07,0.27-2.01,0.65-2.84,1.14
		c-0.83,0.49-1.71,1.01-2.64,1.54c-0.24,0.13-0.51,0.21-0.8,0.22c-0.29,0.01-0.53-0.07-0.72-0.26c-0.24-0.27-0.31-0.56-0.22-0.88
		c0.09-0.32,0.22-0.59,0.38-0.8c0.43-0.51,0.96-0.97,1.6-1.4c0.64-0.43,1.29-0.81,1.94-1.14c0.65-0.33,1.27-0.59,1.84-0.78
		c0.57-0.19,1.02-0.29,1.34-0.32c1.04-0.08,1.74,0.14,2.1,0.66c0.36,0.52,0.54,1.18,0.54,1.98c0.03,1.01,0.01,2.2-0.06,3.56
		c-0.07,1.36-0.17,2.68-0.3,3.96c-0.05,0.67-0.25,1.17-0.58,1.52C64.04,23.43,63.67,23.6,63.27,23.6z"/>
	<path class="st0" d="M72.99,23.64c-0.32,0.51-0.63,0.79-0.92,0.84c-0.29,0.05-0.53,0.04-0.72-0.04c-0.35-0.16-0.55-0.46-0.6-0.9
		c-0.05-0.44,0-0.87,0.16-1.3c0.48-0.99,1.07-1.89,1.76-2.72c0.69-0.83,1.4-1.57,2.12-2.24c0.72-0.67,1.42-1.25,2.1-1.74
		c0.68-0.49,1.26-0.89,1.74-1.18c0.53-0.32,0.95-0.31,1.24,0.04c0.32,0.37,0.45,0.7,0.4,0.98c-0.05,0.28-0.2,0.55-0.44,0.82
		c-0.35,0.29-0.67,0.57-0.96,0.84c-0.29,0.27-0.59,0.52-0.88,0.76c0.53,0.27,0.91,0.69,1.14,1.26c0.23,0.57,0.31,1.13,0.26,1.66
		c-0.13,1.57-0.26,3.14-0.38,4.7c-0.12,1.56-0.18,3.13-0.18,4.7c0,0.51-0.07,0.9-0.2,1.18s-0.4,0.42-0.8,0.42
		c-0.27,0-0.51-0.13-0.74-0.4c-0.23-0.27-0.39-0.53-0.5-0.8c-0.16-0.43-0.23-1.11-0.22-2.04c0.01-0.93,0.05-1.95,0.12-3.06
		c0.07-1.11,0.13-2.23,0.2-3.38c0.07-1.15,0.07-2.15,0.02-3c-0.8,0.8-1.49,1.57-2.06,2.3C74.08,22.07,73.52,22.84,72.99,23.64z
		 M92.71,25.48c0.03,0.35-0.08,0.65-0.32,0.9c-0.24,0.25-0.55,0.31-0.92,0.18c-0.27-0.08-0.51-0.27-0.74-0.58
		c-0.23-0.31-0.37-0.63-0.42-0.98c-0.08-0.48-0.13-1.03-0.14-1.64c-0.01-0.61-0.01-1.26,0-1.94s0.05-1.37,0.12-2.08
		c0.07-0.71,0.15-1.39,0.26-2.06c-0.51,0.19-1.07,0.4-1.68,0.64c-0.61,0.24-1.25,0.51-1.9,0.82c-0.65,0.31-1.3,0.64-1.94,1
		c-0.64,0.36-1.24,0.74-1.8,1.14c-0.29,0.21-0.61,0.42-0.94,0.62s-0.65,0.17-0.94-0.1c-0.08-0.08-0.17-0.21-0.28-0.38
		c-0.11-0.17-0.11-0.38,0-0.62c0.29-0.72,0.87-1.39,1.72-2c0.85-0.61,1.79-1.17,2.82-1.66c1.03-0.49,2.04-0.92,3.04-1.28
		s1.79-0.63,2.38-0.82c0.11-0.48,0.25-0.95,0.44-1.4c0.21-0.59,0.51-0.88,0.88-0.88c0.4,0.03,0.75,0.25,1.06,0.68
		c0.31,0.43,0.39,0.95,0.26,1.56c-0.16,0.83-0.31,1.65-0.46,2.46s-0.27,1.65-0.38,2.52c-0.11,0.87-0.17,1.78-0.2,2.74
		S92.63,24.33,92.71,25.48z M93.43,29.68c-0.08,0.75-0.15,1.43-0.22,2.04c-0.07,0.61-0.12,1.21-0.16,1.8
		c-0.04,0.59-0.08,1.17-0.12,1.76s-0.06,1.23-0.06,1.92c-0.05,0.45-0.19,0.76-0.4,0.92c-0.21,0.16-0.43,0.25-0.64,0.28
		c-0.21,0.03-0.47-0.08-0.76-0.32c-0.29-0.24-0.47-0.64-0.52-1.2c-0.11-0.96-0.12-2-0.04-3.12c0.08-1.12,0.2-2.33,0.36-3.64
		c-0.72,0-1.52,0.06-2.4,0.18c-0.88,0.12-1.73,0.25-2.56,0.38c-0.37,0.05-0.76,0.05-1.16,0c-0.4-0.05-0.69-0.28-0.88-0.68
		c-0.03-0.05-0.05-0.14-0.08-0.26c-0.03-0.12-0.03-0.26,0-0.42c0.03-0.16,0.11-0.32,0.24-0.48c0.13-0.16,0.36-0.31,0.68-0.44
		c0.35-0.11,0.81-0.22,1.38-0.34c0.57-0.12,1.18-0.22,1.82-0.3s1.27-0.14,1.9-0.18c0.63-0.04,1.18-0.05,1.66-0.02
		c0.48,0.03,0.85,0.12,1.12,0.28s0.47,0.34,0.6,0.54c0.13,0.2,0.21,0.42,0.24,0.66C93.46,29.28,93.46,29.49,93.43,29.68z"/>
	<path class="st0" d="M105.63,37.88c-0.53,0.08-0.89-0.02-1.08-0.3s-0.33-0.62-0.44-1.02c-0.16-0.56-0.28-1.24-0.36-2.04
		c-0.08-0.8-0.13-1.63-0.14-2.5c-0.01-0.87-0.01-1.7,0.02-2.5c0.03-0.8,0.07-1.48,0.12-2.04c-0.8,0.16-1.61,0.33-2.44,0.52
		s-1.71,0.39-2.64,0.6c-0.53,0.13-1.05,0.19-1.56,0.18s-0.83-0.22-0.96-0.62c-0.13-0.37,0.01-0.73,0.42-1.08
		c0.41-0.35,0.89-0.6,1.42-0.76c0.4-0.11,1.03-0.29,1.9-0.54s1.87-0.5,3-0.74s2.34-0.45,3.62-0.64s2.52-0.28,3.72-0.28
		c0.4,0.03,0.73,0.17,0.98,0.42c0.25,0.25,0.38,0.53,0.38,0.82c0,0.24-0.13,0.43-0.4,0.56c-0.27,0.13-0.48,0.21-0.64,0.24
		c-0.91,0.16-1.77,0.31-2.58,0.46s-1.62,0.3-2.42,0.46c0.43,0.43,0.64,0.93,0.64,1.52c-0.03,0.4-0.03,0.99-0.02,1.76
		c0.01,0.77,0.03,1.57,0.06,2.38s0.06,1.59,0.1,2.32c0.04,0.73,0.07,1.26,0.1,1.58c0.03,0.35-0.05,0.63-0.22,0.84
		C106.04,37.69,105.84,37.83,105.63,37.88z M105.27,23.6c-0.21,0-0.37-0.07-0.48-0.22c-0.11-0.15-0.18-0.32-0.22-0.52
		c-0.04-0.2-0.06-0.4-0.06-0.6c0-0.2,0-0.35,0-0.46c0.05-1.2,0.12-2.43,0.2-3.7s0.11-2.61,0.08-4.02c-1.07,0.27-2.01,0.65-2.84,1.14
		c-0.83,0.49-1.71,1.01-2.64,1.54c-0.24,0.13-0.51,0.21-0.8,0.22c-0.29,0.01-0.53-0.07-0.72-0.26c-0.24-0.27-0.31-0.56-0.22-0.88
		c0.09-0.32,0.22-0.59,0.38-0.8c0.43-0.51,0.96-0.97,1.6-1.4c0.64-0.43,1.29-0.81,1.94-1.14c0.65-0.33,1.27-0.59,1.84-0.78
		c0.57-0.19,1.02-0.29,1.34-0.32c1.04-0.08,1.74,0.14,2.1,0.66c0.36,0.52,0.54,1.18,0.54,1.98c0.03,1.01,0.01,2.2-0.06,3.56
		c-0.07,1.36-0.17,2.68-0.3,3.96c-0.05,0.67-0.25,1.17-0.58,1.52C106.04,23.43,105.67,23.6,105.27,23.6z"/>
	<path class="st0" d="M114.99,23.64c-0.32,0.51-0.63,0.79-0.92,0.84c-0.29,0.05-0.53,0.04-0.72-0.04c-0.35-0.16-0.55-0.46-0.6-0.9
		s0-0.87,0.16-1.3c0.48-0.99,1.07-1.89,1.76-2.72c0.69-0.83,1.4-1.57,2.12-2.24c0.72-0.67,1.42-1.25,2.1-1.74
		c0.68-0.49,1.26-0.89,1.74-1.18c0.53-0.32,0.95-0.31,1.24,0.04c0.32,0.37,0.45,0.7,0.4,0.98c-0.05,0.28-0.2,0.55-0.44,0.82
		c-0.35,0.29-0.67,0.57-0.96,0.84c-0.29,0.27-0.59,0.52-0.88,0.76c0.53,0.27,0.91,0.69,1.14,1.26c0.23,0.57,0.31,1.13,0.26,1.66
		c-0.13,1.57-0.26,3.14-0.38,4.7c-0.12,1.56-0.18,3.13-0.18,4.7c0,0.51-0.07,0.9-0.2,1.18s-0.4,0.42-0.8,0.42
		c-0.27,0-0.51-0.13-0.74-0.4s-0.39-0.53-0.5-0.8c-0.16-0.43-0.23-1.11-0.22-2.04c0.01-0.93,0.05-1.95,0.12-3.06s0.13-2.23,0.2-3.38
		c0.07-1.15,0.07-2.15,0.02-3c-0.8,0.8-1.49,1.57-2.06,2.3C116.08,22.07,115.52,22.84,114.99,23.64z M134.71,25.48
		c0.03,0.35-0.08,0.65-0.32,0.9c-0.24,0.25-0.55,0.31-0.92,0.18c-0.27-0.08-0.51-0.27-0.74-0.58c-0.23-0.31-0.37-0.63-0.42-0.98
		c-0.08-0.48-0.13-1.03-0.14-1.64c-0.01-0.61-0.01-1.26,0-1.94s0.05-1.37,0.12-2.08c0.07-0.71,0.15-1.39,0.26-2.06
		c-0.51,0.19-1.07,0.4-1.68,0.64c-0.61,0.24-1.25,0.51-1.9,0.82c-0.65,0.31-1.3,0.64-1.94,1c-0.64,0.36-1.24,0.74-1.8,1.14
		c-0.29,0.21-0.61,0.42-0.94,0.62c-0.33,0.2-0.65,0.17-0.94-0.1c-0.08-0.08-0.17-0.21-0.28-0.38c-0.11-0.17-0.11-0.38,0-0.62
		c0.29-0.72,0.87-1.39,1.72-2c0.85-0.61,1.79-1.17,2.82-1.66c1.03-0.49,2.04-0.92,3.04-1.28s1.79-0.63,2.38-0.82
		c0.11-0.48,0.25-0.95,0.44-1.4c0.21-0.59,0.51-0.88,0.88-0.88c0.4,0.03,0.75,0.25,1.06,0.68c0.31,0.43,0.39,0.95,0.26,1.56
		c-0.16,0.83-0.31,1.65-0.46,2.46s-0.27,1.65-0.38,2.52c-0.11,0.87-0.17,1.78-0.2,2.74S134.63,24.33,134.71,25.48z M135.43,29.68
		c-0.08,0.75-0.15,1.43-0.22,2.04c-0.07,0.61-0.12,1.21-0.16,1.8c-0.04,0.59-0.08,1.17-0.12,1.76s-0.06,1.23-0.06,1.92
		c-0.05,0.45-0.19,0.76-0.4,0.92c-0.21,0.16-0.43,0.25-0.64,0.28c-0.21,0.03-0.47-0.08-0.76-0.32c-0.29-0.24-0.47-0.64-0.52-1.2
		c-0.11-0.96-0.12-2-0.04-3.12c0.08-1.12,0.2-2.33,0.36-3.64c-0.72,0-1.52,0.06-2.4,0.18c-0.88,0.12-1.73,0.25-2.56,0.38
		c-0.37,0.05-0.76,0.05-1.16,0c-0.4-0.05-0.69-0.28-0.88-0.68c-0.03-0.05-0.05-0.14-0.08-0.26s-0.03-0.26,0-0.42
		c0.03-0.16,0.11-0.32,0.24-0.48c0.13-0.16,0.36-0.31,0.68-0.44c0.35-0.11,0.81-0.22,1.38-0.34c0.57-0.12,1.18-0.22,1.82-0.3
		s1.27-0.14,1.9-0.18c0.63-0.04,1.18-0.05,1.66-0.02c0.48,0.03,0.85,0.12,1.12,0.28s0.47,0.34,0.6,0.54
		c0.13,0.2,0.21,0.42,0.24,0.66C135.46,29.28,135.46,29.49,135.43,29.68z"/>
</g>
</svg>
