<svg width="25" height="20" viewBox="0 0 25 20" fill="none" xmlns="http://www.w3.org/2000/svg">
<path d="M23.7143 10.7081L14.7143 19.7081C14.5267 19.8957 14.2722 20.0011 14.0068 20.0011C13.7415 20.0011 13.487 19.8957 13.2993 19.7081C13.1117 19.5204 13.0063 19.2659 13.0063 19.0006C13.0063 18.7352 13.1117 18.4807 13.2993 18.2931L20.5931 11.0006H1.00684C0.741619 11.0006 0.487266 10.8952 0.299729 10.7077C0.112193 10.5201 0.00683594 10.2658 0.00683594 10.0006C0.00683594 9.73534 0.112193 9.48099 0.299729 9.29345C0.487266 9.10591 0.741619 9.00056 1.00684 9.00056H20.5931L13.2993 1.70806C13.1117 1.52042 13.0063 1.26592 13.0063 1.00056C13.0063 0.735192 13.1117 0.480697 13.2993 0.293056C13.487 0.105415 13.7415 0 14.0068 0C14.2722 0 14.5267 0.105415 14.7143 0.293056L23.7143 9.29306C23.8073 9.38593 23.8811 9.49622 23.9314 9.61762C23.9817 9.73901 24.0076 9.86914 24.0076 10.0006C24.0076 10.132 23.9817 10.2621 23.9314 10.3835C23.8811 10.5049 23.8073 10.6152 23.7143 10.7081Z" fill="white"/>
</svg>
