<?xml version="1.0" encoding="utf-8"?>
<!-- Generator: Adobe Illustrator 24.0.0, SVG Export Plug-In . SVG Version: 6.00 Build 0)  -->
<svg version="1.1" id="Layer_1" xmlns="http://www.w3.org/2000/svg" xmlns:xlink="http://www.w3.org/1999/xlink" x="0px" y="0px"
	 viewBox="0 0 190 45" style="enable-background:new 0 0 190 45;" xml:space="preserve">
<style type="text/css">
	.st0{fill:url(#SVGID_1_);}
	.st1{fill:url(#SVGID_2_);}
	.st2{opacity:0.4;fill:#333333;}
	.st3{opacity:0.4;fill:#FFFFFF;}
	.st4{fill:#686868;}
	.st5{fill:none;}
</style>
<symbol  id="Rock_4" viewBox="-24.58 -16.99 49.44 34.24">
	<g>
		<g>
			<g>
				<linearGradient id="SVGID_1_" gradientUnits="userSpaceOnUse" x1="0.1407" y1="20.2328" x2="0.1407" y2="-29.38">
					<stop  offset="0" style="stop-color:#DADADA"/>
					<stop  offset="0.5" style="stop-color:#878787"/>
					<stop  offset="1" style="stop-color:#575756"/>
				</linearGradient>
				<path class="st0" d="M24.51-10.17C23.24-7.64,16.29,0.28,13.27,1.38C2.96,5.12,2.97,15.12-1.72,16.99
					c-4.68,1.87-13.11-6.56-14.05-10.3c-0.93-3.75-9.68-13.11-8.74-15.92c0.94-2.81,3.75-4.37,3.75-4.37
					c0.26-0.66,1.11-1.2,2.33-1.64l0.02,0.09c0,0,1.37,1.82,1.37,2.73c0,0.91-3.65,2.74-3.65,2.74l1.37,1.14l2.96-0.91
					c0,0,6.38-3.42,8.21-2.28c1.82,1.14,27.35,1.37,27.35,1.37l-0.91-2.51l2.05-1.6v-0.25C23.33-14,25.8-12.76,24.51-10.17z"/>
				<linearGradient id="SVGID_2_" gradientUnits="userSpaceOnUse" x1="-0.1684" y1="19.9467" x2="-0.1684" y2="-29.2677">
					<stop  offset="0" style="stop-color:#DADADA"/>
					<stop  offset="0.5" style="stop-color:#878787"/>
					<stop  offset="1" style="stop-color:#575756"/>
				</linearGradient>
				<path class="st1" d="M18.3-12.88l0.91,2.51c0,0-25.53-0.23-27.35-1.37c-1.82-1.14-8.21,2.28-8.21,2.28l-2.96,0.91l-1.37-1.14
					c0,0,3.65-1.82,3.65-2.74c0-0.91-1.37-2.73-1.37-2.73l-0.02-0.09c7.47-2.69,29.82-1.66,31.7-0.86c1.06,0.45,4.29,0.69,7.08,1.37
					v0.25L18.3-12.88z"/>
				<path class="st2" d="M18.3-12.88l0.91,2.51c0,0-25.53-0.23-27.35-1.37c-1.82-1.14-8.21,2.28-8.21,2.28l-2.96,0.91l-1.37-1.14
					c0,0,3.65-1.82,3.65-2.74c0-0.91-1.37-2.73-1.37-2.73l-0.02-0.09c7.47-2.69,29.82-1.66,31.7-0.86c1.06,0.45,4.29,0.69,7.08,1.37
					v0.25L18.3-12.88z"/>
			</g>
			<path class="st3" d="M-3.13,15.84c-0.4,1.61-7.29-3.65-8.43-5.25c-1.14-1.6-2.28-3.65-0.91-3.65c1.37,0,6.16-0.23,5.24,1.14
				C-8.15,9.46-2.9,14.93-3.13,15.84z"/>
		</g>
		<path class="st2" d="M-0.85,13.56c0,0-2.28-1.82-1.82-3.19C-2.22,9-0.4,11.05-0.4,11.05L0.06,7.4c0,0-1.6-0.91-2.28-2.28
			C-2.9,3.76-5.41,1.7-5.41,1.7l1.6-1.6c0,0,2.28,3.88,3.65,3.88c1.37,0,2.96-2.05,2.96-2.05L0.29,1.48l4.1-1.14
			c0,0,8.66-1.59,9.35-2.05c0.68-0.45-1.82,1.82-1.82,1.82S6.44,1.02,5.3,2.84C4.16,4.67,1.43,6.26,1.43,6.26l1.82,1.59
			C3.25,7.86,0.06,14.02-0.85,13.56z"/>
		<path class="st2" d="M4.39-0.8l5.93-0.91l2.05-1.37L16.7-2.4l3.88-5.01l-3.19,2.05l-3.19-0.46c0,0-3.19,2.73-4.33,1.82
			C8.72-4.91,6.21-6.05,6.21-6.05L6.9-3.08H0.52l1.14,1.82L4.39-0.8z"/>
	</g>
</symbol>
<g>
	<g>
		<path class="st4" d="M83.71,20.22c0,0.48-0.08,0.96-0.24,1.43c-0.16,0.47-0.38,0.88-0.68,1.23c-0.29,0.35-0.66,0.6-1.08,0.75
			c-0.43,0.16-0.91,0.15-1.43-0.02c-0.52-0.17-0.92-0.54-1.19-1.13c-0.27-0.59-0.37-1.24-0.28-1.95c0.06-0.77,0.28-1.51,0.66-2.22
			c0.38-0.7,0.81-1.19,1.29-1.46c0.19-0.1,0.36-0.14,0.5-0.11c0.15,0.03,0.28,0.08,0.39,0.16c0.12,0.07,0.22,0.16,0.3,0.27
			c0.08,0.11,0.16,0.18,0.22,0.22c0.61,0.34,1.01,0.76,1.21,1.29C83.58,19.2,83.69,19.72,83.71,20.22z M82.11,20.16
			c0.06-0.44,0.07-0.83,0.02-1.18c-0.05-0.35-0.16-0.57-0.33-0.68c-0.17,0.19-0.32,0.44-0.46,0.74c-0.14,0.3-0.25,0.61-0.35,0.93
			c-0.09,0.31-0.16,0.62-0.19,0.91c-0.03,0.29-0.03,0.51,0.02,0.66c0.06,0.04,0.15,0.05,0.27,0.03c0.12-0.02,0.24-0.08,0.38-0.17
			c0.14-0.09,0.27-0.24,0.39-0.44C81.99,20.76,82.07,20.49,82.11,20.16z M92.2,14.5c-0.04,0.44-0.2,0.72-0.47,0.85
			c-0.27,0.13-0.57,0.21-0.88,0.25c-1.03,0.13-2.05,0.29-3.08,0.5c-1.03,0.21-2.04,0.5-3.05,0.88c-0.29,0.11-0.59,0.2-0.9,0.28
			c-0.3,0.08-0.5-0.03-0.58-0.35c0-0.44,0.1-0.79,0.3-1.05c0.2-0.26,0.45-0.47,0.74-0.61c0.38-0.19,0.82-0.37,1.34-0.53
			c0.51-0.17,1.04-0.32,1.57-0.47c0.53-0.15,1.07-0.26,1.6-0.35c0.53-0.08,1.01-0.14,1.43-0.16c0.46-0.02,0.91,0.03,1.34,0.14
			C91.98,14,92.2,14.21,92.2,14.5z M94.33,12.39c0.13-0.5,0.42-0.74,0.88-0.72c0.25,0.02,0.5,0.08,0.74,0.19
			c0.24,0.11,0.38,0.29,0.42,0.57c0.15,2.68,0,5.42-0.44,8.2c-0.04,0.15-0.11,0.29-0.19,0.44c-0.08,0.15-0.18,0.27-0.3,0.38
			c-0.12,0.11-0.24,0.18-0.36,0.22c-0.13,0.04-0.25,0.03-0.38-0.03c-0.17-0.08-0.3-0.21-0.39-0.38c-0.09-0.17-0.16-0.35-0.2-0.53
			c-0.04-0.19-0.06-0.36-0.06-0.52c0-0.16,0-0.27,0-0.33c0.04-0.33,0.07-0.68,0.08-1.02c0.01-0.35,0.04-0.7,0.08-1.05
			c-0.8,0.67-1.75,1.29-2.88,1.85c-1.12,0.57-2.43,1-3.91,1.29c-0.36,0-0.61-0.1-0.77-0.31c-0.16-0.21-0.25-0.42-0.27-0.63
			c-0.02-0.21,0.07-0.38,0.27-0.52c0.2-0.14,0.41-0.25,0.64-0.33c1.74-0.59,3.18-1.25,4.32-2c1.14-0.74,2.05-1.48,2.72-2.22V12.39z
			 M96.6,25.31c0.04,0.44,0.06,0.92,0.06,1.43c0,0.51-0.01,1.01-0.02,1.48c-0.01,0.47-0.03,0.88-0.05,1.24
			c-0.02,0.36-0.04,0.61-0.06,0.75c-0.06,0.44-0.36,0.63-0.88,0.57c-0.31-0.1-0.56-0.26-0.72-0.46c-0.17-0.2-0.28-0.42-0.35-0.68
			c0.11-1.4,0.11-2.82,0-4.24c-0.36,0-0.71,0.04-1.05,0.13c-0.35,0.08-0.67,0.18-0.96,0.3c-0.29,0.12-0.56,0.23-0.79,0.35
			c-0.23,0.12-0.42,0.2-0.57,0.27c-0.17,0.08-0.4,0.07-0.71-0.05c-0.3-0.12-0.53-0.37-0.68-0.77c-0.04-0.1-0.07-0.24-0.08-0.41
			c-0.01-0.17,0.13-0.33,0.42-0.5c0.36-0.21,0.75-0.41,1.19-0.61c0.44-0.2,0.89-0.36,1.35-0.49c0.46-0.13,0.93-0.2,1.4-0.22
			c0.47-0.02,0.93,0.02,1.37,0.13c0.38,0.15,0.64,0.36,0.79,0.63C96.43,24.42,96.53,24.81,96.6,25.31z"/>
		<path class="st4" d="M100.56,23.08c0.19,0.21,0.24,0.43,0.16,0.66c-0.04,0.11-0.11,0.2-0.19,0.28c-0.12,0.06-0.3,0.12-0.52,0.16
			c-0.22,0.04-0.44,0.05-0.66,0.03c-0.22-0.02-0.4-0.08-0.55-0.19c-0.15-0.1-0.2-0.26-0.16-0.47c0-0.65,0.21-1.4,0.63-2.25
			c0.42-0.85,0.93-1.69,1.54-2.53c0.61-0.84,1.26-1.63,1.95-2.37c0.69-0.74,1.33-1.35,1.92-1.81c0.17-0.1,0.42-0.16,0.77-0.16
			c0.35,0,0.58,0.06,0.71,0.19c0.13,0.13,0.18,0.27,0.16,0.44c-0.02,0.17-0.08,0.33-0.17,0.49c-0.09,0.16-0.2,0.31-0.33,0.47
			c-0.13,0.16-0.23,0.28-0.31,0.36c-1.05,1.07-1.96,2.13-2.75,3.19C101.96,20.63,101.23,21.8,100.56,23.08z M104.2,18.99
			c0.29,0.04,0.53,0.15,0.72,0.33c0.19,0.18,0.28,0.47,0.28,0.86c0.02,0.52,0.07,1.07,0.16,1.63c0.08,0.57,0.18,1.12,0.28,1.67
			c0.11,0.54,0.23,1.06,0.36,1.54c0.14,0.48,0.28,0.91,0.42,1.29c0.1,0.23,0.12,0.41,0.05,0.53c-0.07,0.13-0.13,0.2-0.17,0.22
			c-0.19,0.08-0.4,0.11-0.64,0.08c-0.24-0.03-0.44-0.13-0.58-0.3c-0.67-0.84-1.12-1.86-1.35-3.06c-0.23-1.2-0.36-2.5-0.38-3.88
			c-0.02-0.31,0.04-0.55,0.19-0.72C103.69,19.01,103.91,18.95,104.2,18.99z M113.38,17.64c0.96-0.38,1.96-0.59,3-0.63
			c1.04-0.04,1.91,0.05,2.62,0.28c0.19,0.06,0.32,0.15,0.39,0.25c0.07,0.11,0.11,0.2,0.12,0.3c0.01,0.09,0,0.18-0.02,0.25
			c-0.02,0.07-0.03,0.12-0.03,0.14c-0.1,0.17-0.23,0.31-0.36,0.44c-0.14,0.13-0.29,0.19-0.46,0.19c-0.9,0-1.65,0.03-2.26,0.08
			c-0.61,0.05-1.21,0.17-1.82,0.36c-0.19,0.06-0.34,0.08-0.46,0.05c-0.12-0.03-0.21-0.07-0.28-0.13c-0.07-0.05-0.14-0.1-0.19-0.14
			c-0.05-0.04-0.11-0.05-0.17-0.03c-0.04,0.02-0.06,0.14-0.06,0.35c0,0.48,0.01,1,0.03,1.56c0.02,0.56,0.05,1.1,0.09,1.65
			c0.04,0.54,0.08,1.07,0.11,1.57c0.03,0.5,0.07,0.95,0.11,1.35c0.02,0.27-0.05,0.56-0.22,0.85c-0.17,0.29-0.4,0.42-0.69,0.38
			c-0.21-0.04-0.43-0.19-0.66-0.44c-0.23-0.25-0.37-0.51-0.41-0.79c-0.17-1.03-0.29-2.16-0.36-3.39c-0.07-1.24-0.11-2.48-0.09-3.74
			c0.01-1.26,0.05-2.47,0.13-3.63c0.07-1.16,0.17-2.2,0.3-3.13c0.02-0.1,0.09-0.19,0.22-0.27c0.13-0.07,0.27-0.12,0.42-0.14
			c0.16-0.02,0.32-0.02,0.49,0c0.17,0.02,0.3,0.07,0.41,0.16c0.08,0.06,0.19,0.18,0.33,0.36c0.14,0.18,0.18,0.35,0.14,0.52
			c-0.06,0.36-0.12,0.77-0.17,1.24c-0.05,0.47-0.09,0.95-0.13,1.45c-0.03,0.49-0.05,0.97-0.06,1.45
			C113.38,16.87,113.38,17.29,113.38,17.64z"/>
		<path class="st4" d="M123.31,14.97c-0.15,1.38-0.25,2.86-0.3,4.43c-0.05,1.57,0.05,3.18,0.3,4.84c0.02,0.13,0.05,0.29,0.08,0.5
			c0.03,0.21,0.05,0.41,0.05,0.61c0,0.2-0.03,0.37-0.09,0.52s-0.18,0.23-0.35,0.25c-0.23,0.02-0.44-0.05-0.61-0.22
			c-0.18-0.17-0.33-0.37-0.46-0.61c-0.13-0.24-0.23-0.49-0.31-0.74c-0.08-0.25-0.14-0.46-0.16-0.63c-0.23-1.53-0.37-3.04-0.41-4.52
			c-0.04-1.49,0.02-3,0.19-4.53c0.04-0.23,0.13-0.46,0.27-0.68c0.14-0.22,0.32-0.33,0.55-0.33c0.4,0,0.72,0.13,0.96,0.38
			C123.25,14.5,123.35,14.74,123.31,14.97z M130.38,14.81c-0.13,0.82-0.18,1.67-0.17,2.55c0.01,0.88-0.01,1.77-0.06,2.66
			c-0.05,0.89-0.19,1.78-0.42,2.66c-0.23,0.88-0.64,1.73-1.23,2.54c-0.08,0.13-0.22,0.2-0.41,0.22c-0.19,0.02-0.39,0.01-0.61-0.03
			c-0.22-0.04-0.43-0.12-0.63-0.24c-0.2-0.11-0.34-0.25-0.42-0.39c-0.13-0.19-0.26-0.44-0.39-0.77c-0.14-0.32-0.26-0.67-0.38-1.04
			c-0.11-0.37-0.22-0.73-0.3-1.1s-0.14-0.68-0.16-0.93c0-0.38,0.07-0.74,0.22-1.08c0.15-0.35,0.35-0.64,0.61-0.9
			c0.26-0.25,0.57-0.46,0.91-0.61c0.35-0.16,0.72-0.24,1.12-0.24c0-0.71,0.03-1.42,0.08-2.14c0.05-0.71,0.17-1.41,0.36-2.11
			c0.17-0.42,0.48-0.58,0.94-0.47c0.29,0.06,0.53,0.2,0.72,0.41C130.35,14.02,130.42,14.35,130.38,14.81z M128.02,19.84
			c-0.25-0.02-0.54,0.04-0.86,0.19c-0.33,0.15-0.54,0.36-0.64,0.63c-0.11,0.23-0.15,0.49-0.13,0.77c0.02,0.28,0.07,0.57,0.14,0.85
			c0.07,0.28,0.16,0.56,0.27,0.83c0.1,0.27,0.2,0.5,0.28,0.69c0.13-0.23,0.24-0.51,0.35-0.83c0.11-0.32,0.2-0.67,0.3-1.04
			c0.09-0.37,0.17-0.73,0.22-1.08C127.99,20.49,128.02,20.16,128.02,19.84z M138.58,26.16c-0.08,0.69-0.17,1.37-0.25,2.04
			c-0.08,0.67-0.15,1.31-0.19,1.92c-0.02,0.36-0.14,0.63-0.36,0.83c-0.22,0.2-0.48,0.28-0.77,0.24c-0.15-0.02-0.28-0.09-0.39-0.22
			c-0.12-0.13-0.21-0.28-0.28-0.47c-0.07-0.19-0.13-0.39-0.17-0.6c-0.04-0.21-0.06-0.41-0.06-0.6c0.02-0.61,0.06-1.16,0.11-1.65
			c0.05-0.49,0.13-1.03,0.23-1.62c-0.61-0.04-1.2,0.12-1.79,0.49c-0.59,0.37-1.15,0.72-1.7,1.05c-0.25,0.17-0.59,0.28-1.01,0.35
			c-0.42,0.06-0.83-0.04-1.23-0.31c-0.29-0.19-0.42-0.41-0.38-0.66c0.04-0.25,0.18-0.44,0.41-0.57c0.38-0.25,0.76-0.51,1.16-0.79
			c0.4-0.27,0.81-0.52,1.23-0.75c0.42-0.23,0.84-0.43,1.27-0.6c0.43-0.17,0.86-0.25,1.3-0.25c0.86-0.02,1.57,0.14,2.14,0.49
			C138.42,24.82,138.66,25.38,138.58,26.16z M136.82,10.16c-0.04,0.31-0.08,0.66-0.13,1.02c-0.04,0.37-0.08,0.74-0.11,1.12
			c-0.03,0.38-0.06,0.74-0.08,1.08c-0.02,0.35-0.03,0.66-0.03,0.93c0.52-0.17,1.13-0.33,1.81-0.49s1.26-0.25,1.74-0.27
			c0.19,0,0.4,0.02,0.63,0.05c0.23,0.03,0.45,0.08,0.66,0.14c0.21,0.06,0.39,0.15,0.55,0.25c0.16,0.11,0.26,0.23,0.3,0.38
			c0,0.21-0.14,0.39-0.42,0.55c-0.28,0.16-0.56,0.26-0.83,0.3c-0.73,0.13-1.47,0.28-2.22,0.47c-0.74,0.19-1.51,0.43-2.31,0.72
			c0,0.42,0.02,0.86,0.06,1.34c0.04,0.47,0.09,0.99,0.16,1.56c0,0.08,0,0.23-0.02,0.44c-0.01,0.21-0.05,0.42-0.13,0.63
			c-0.07,0.21-0.17,0.39-0.3,0.55c-0.13,0.16-0.29,0.24-0.5,0.24c-0.19,0-0.35-0.07-0.49-0.2c-0.14-0.14-0.25-0.3-0.35-0.5
			c-0.09-0.2-0.17-0.41-0.22-0.64c-0.05-0.23-0.09-0.45-0.11-0.66c-0.13-0.69-0.21-1.43-0.25-2.23c-0.04-0.8-0.05-1.6-0.02-2.42
			c0.03-0.82,0.09-1.62,0.19-2.42c0.09-0.8,0.21-1.53,0.36-2.2c0.08-0.29,0.19-0.55,0.33-0.79c0.14-0.23,0.38-0.32,0.74-0.28
			c0.4,0.04,0.68,0.19,0.83,0.44C136.83,9.5,136.88,9.81,136.82,10.16z"/>
		<path class="st4" d="M150.58,9.47c-0.13,0.42-0.31,0.87-0.57,1.37c-0.25,0.49-0.46,0.88-0.63,1.18c0.25-0.06,0.63-0.15,1.15-0.25
			c0.51-0.1,1.04-0.18,1.59-0.22c0.54-0.04,1.05-0.02,1.51,0.08c0.46,0.09,0.75,0.32,0.88,0.68c0,0.42-0.12,0.65-0.36,0.69
			c-0.24,0.04-0.51,0.07-0.8,0.09c-0.55,0.04-1.13,0.12-1.74,0.22c-0.62,0.11-1.22,0.22-1.79,0.35s-1.11,0.25-1.6,0.38
			c-0.49,0.13-0.89,0.23-1.18,0.31c-0.19,0.04-0.37,0.02-0.55-0.06c-0.18-0.08-0.39-0.27-0.64-0.57c-0.19-0.25-0.07-0.57,0.35-0.94
			c0.57-0.54,1.07-1.13,1.52-1.76c0.45-0.63,0.77-1.32,0.96-2.07c0.02-0.17-0.05-0.28-0.22-0.35c-0.17-0.06-0.38-0.1-0.63-0.11
			c-0.25-0.01-0.52,0.01-0.8,0.05c-0.28,0.04-0.55,0.07-0.8,0.09c-0.23,0.04-0.41,0.04-0.53,0c-0.13-0.04-0.26-0.13-0.41-0.25
			c-0.08,0.82-0.11,1.73-0.08,2.75c0.03,1.02,0.1,2.03,0.2,3.03c0.02,0.23-0.05,0.44-0.22,0.61c-0.17,0.18-0.37,0.29-0.6,0.33
			c-0.15,0.02-0.3-0.03-0.46-0.16s-0.26-0.24-0.3-0.35c-0.36-1.01-0.57-2.03-0.64-3.08c-0.07-1.05-0.11-2.2-0.11-3.46
			c0-0.23,0.08-0.47,0.25-0.71c0.17-0.24,0.48-0.37,0.94-0.39c0.23,0,0.44,0.05,0.63,0.14c0.19,0.09,0.3,0.2,0.35,0.33
			c0.13-0.13,0.32-0.23,0.6-0.31c0.31-0.08,0.66-0.15,1.05-0.19c0.39-0.04,0.78-0.04,1.18,0c0.4,0.04,0.79,0.13,1.16,0.27
			c0.38,0.14,0.72,0.34,1.04,0.61c0.25,0.23,0.39,0.49,0.42,0.77C150.72,8.86,150.69,9.16,150.58,9.47z M154.35,25.09
			c-0.23,0.52-0.58,1.07-1.05,1.65c-0.47,0.58-0.95,1.07-1.43,1.49c0.29-0.08,0.64-0.12,1.04-0.09c0.4,0.02,0.71,0.15,0.94,0.38
			c0.23,0.25,0.34,0.54,0.33,0.86c-0.01,0.33-0.12,0.67-0.33,1.02c-0.42,0.67-0.86,1.32-1.34,1.96c-0.47,0.64-0.96,1.23-1.46,1.78
			c0.52-0.15,1.02-0.3,1.49-0.46c0.47-0.16,0.94-0.31,1.41-0.46c0.47-0.15,0.96-0.29,1.46-0.42c0.5-0.14,1.05-0.28,1.63-0.42
			c0.15-0.02,0.32-0.04,0.52-0.05c0.2-0.01,0.38,0,0.55,0.05c0.17,0.04,0.3,0.12,0.41,0.22c0.1,0.1,0.15,0.26,0.13,0.47
			c-0.04,0.23-0.1,0.46-0.17,0.68c-0.07,0.22-0.22,0.36-0.42,0.42c-0.61,0.17-1.18,0.33-1.73,0.49c-0.55,0.16-1.11,0.32-1.68,0.49
			c-0.58,0.17-1.17,0.35-1.79,0.55c-0.62,0.2-1.3,0.42-2.06,0.68c-0.17,0.06-0.37,0.12-0.61,0.16c-0.24,0.04-0.48,0.05-0.72,0.03
			c-0.24-0.02-0.48-0.08-0.71-0.17c-0.23-0.09-0.42-0.25-0.57-0.46c-0.15-0.19-0.23-0.37-0.25-0.53c-0.02-0.17-0.01-0.32,0.03-0.47
			c0.04-0.15,0.11-0.29,0.2-0.42c0.09-0.14,0.19-0.26,0.3-0.36c0.61-0.69,1.13-1.34,1.57-1.93c0.44-0.6,0.87-1.23,1.29-1.9
			c-0.34,0.04-0.67,0.11-1.01,0.2c-0.34,0.09-0.66,0.17-0.97,0.24c-0.29,0.06-0.58,0.01-0.85-0.17c-0.27-0.18-0.41-0.39-0.41-0.64
			c-0.04-0.31,0.13-0.63,0.5-0.94c0.21-0.19,0.47-0.42,0.79-0.69c0.31-0.27,0.64-0.58,0.97-0.91c0.34-0.34,0.65-0.69,0.96-1.05
			c0.3-0.37,0.54-0.73,0.71-1.08c-0.57,0-1.19,0.11-1.89,0.33c-0.69,0.22-1.34,0.42-1.95,0.61c-0.06,0.04-0.17,0.06-0.31,0.06
			c-0.15,0-0.3-0.02-0.47-0.05c-0.17-0.03-0.33-0.09-0.47-0.17c-0.15-0.08-0.25-0.2-0.31-0.35c-0.06-0.21-0.07-0.4-0.02-0.57
			c0.05-0.17,0.14-0.31,0.27-0.44c0.13-0.13,0.27-0.23,0.42-0.31c0.16-0.08,0.29-0.15,0.39-0.19c0.12-0.02,0.26-0.07,0.41-0.16
			c0.29-0.48,0.57-1.01,0.82-1.57c0.25-0.57,0.48-1.13,0.69-1.68c0.21-0.55,0.41-1.09,0.6-1.6c0.19-0.51,0.38-0.96,0.57-1.34
			c-1.05,0.25-2.06,0.51-3.03,0.77c-0.97,0.26-1.91,0.48-2.81,0.64c-0.31,0.06-0.59-0.03-0.83-0.28c-0.24-0.25-0.38-0.49-0.42-0.72
			c-0.04-0.17,0-0.34,0.11-0.52c0.12-0.18,0.26-0.29,0.42-0.33c1.26-0.4,2.66-0.77,4.21-1.12c1.55-0.35,3.12-0.57,4.71-0.68
			c0.69-0.04,1.32,0.04,1.89,0.25c0.19,0.08,0.28,0.22,0.28,0.41c0,0.08-0.04,0.2-0.11,0.36c-0.07,0.16-0.2,0.26-0.39,0.3
			c-0.44,0.08-0.87,0.17-1.3,0.25c-0.43,0.08-0.85,0.18-1.27,0.28c0.13,0.19,0.19,0.36,0.19,0.5c0,0.23-0.05,0.55-0.14,0.96
			c-0.09,0.41-0.21,0.84-0.35,1.29c-0.14,0.45-0.28,0.89-0.42,1.3c-0.15,0.42-0.27,0.74-0.38,0.97c-0.17,0.36-0.39,0.68-0.66,0.97
			c0.38-0.06,0.75-0.12,1.13-0.16c0.38-0.04,0.76-0.06,1.16-0.06c0.63,0,1.09,0.2,1.4,0.61C154.45,24.26,154.52,24.67,154.35,25.09z
			"/>
		<path class="st4" d="M159.22,24.59c-0.17,0.02-0.36,0.03-0.57,0.02c-0.21-0.01-0.42-0.04-0.63-0.09
			c-0.21-0.05-0.39-0.13-0.53-0.24c-0.15-0.1-0.23-0.25-0.25-0.44c-0.02-0.27,0.1-0.51,0.36-0.72c0.26-0.21,0.57-0.33,0.93-0.38
			c0.46-0.06,0.96-0.16,1.51-0.28c-0.04-0.67-0.11-1.36-0.19-2.06c-0.08-0.7-0.19-1.44-0.31-2.22c-0.02-0.13-0.03-0.28-0.03-0.47
			s0.03-0.36,0.08-0.52c0.05-0.16,0.13-0.3,0.22-0.42c0.09-0.13,0.21-0.19,0.36-0.19c0.31-0.04,0.58,0.06,0.8,0.3
			c0.22,0.24,0.37,0.54,0.46,0.9c0.17,0.67,0.29,1.36,0.36,2.06c0.07,0.7,0.13,1.41,0.17,2.12c0.21-0.04,0.41-0.09,0.6-0.16
			c0.19-0.06,0.38-0.12,0.57-0.16c0.06-0.44,0.1-0.93,0.13-1.48c0.02-0.54,0.02-1.1,0-1.67c-0.02-0.57-0.08-1.12-0.17-1.65
			c-0.09-0.53-0.22-1.02-0.36-1.46c-0.11-0.29-0.33-0.55-0.68-0.79c-0.35-0.23-0.73-0.31-1.15-0.25c-0.29,0.04-0.63,0.14-1.01,0.28
			c-0.38,0.15-0.78,0.3-1.19,0.47c-0.23,0.08-0.48,0.09-0.75,0.03c-0.27-0.06-0.46-0.19-0.57-0.38c-0.21-0.36-0.14-0.71,0.22-1.07
			c0.42-0.42,0.93-0.75,1.52-0.99c0.6-0.24,1.25-0.36,1.96-0.36c1.55,0,2.68,0.7,3.39,2.11c0.19,0.38,0.34,0.85,0.44,1.43
			c0.1,0.58,0.18,1.18,0.24,1.81c0.05,0.63,0.08,1.24,0.08,1.84c0,0.6-0.03,1.09-0.09,1.49c0.38-0.1,0.72-0.2,1.02-0.3
			c0.3-0.09,0.57-0.17,0.8-0.24c0.15-0.04,0.32-0.08,0.53-0.11c0.21-0.03,0.41-0.04,0.6-0.02c0.19,0.02,0.35,0.07,0.49,0.16
			c0.14,0.08,0.22,0.23,0.24,0.44c0.02,0.11,0,0.26-0.06,0.47c-0.06,0.21-0.19,0.38-0.38,0.5c-0.15,0.11-0.52,0.28-1.12,0.52
			c-0.6,0.24-1.32,0.5-2.17,0.79c-0.85,0.28-1.79,0.55-2.81,0.8C161.25,24.27,160.23,24.46,159.22,24.59z M167.11,25.28
			c-0.02,0.17-0.04,0.37-0.06,0.6c-0.02,0.23-0.04,0.47-0.06,0.72c-0.02,0.25-0.03,0.5-0.03,0.74s0.01,0.45,0.03,0.61
			c1.49-0.1,2.85-0.26,4.09-0.47c1.24-0.21,2.4-0.47,3.49-0.79c0.36-0.1,0.65-0.1,0.88,0c0.23,0.11,0.38,0.26,0.44,0.47
			c0.06,0.34-0.04,0.62-0.31,0.86c-0.27,0.24-0.62,0.43-1.04,0.58c-1.05,0.38-2.3,0.72-3.76,1.02c-1.46,0.3-2.9,0.49-4.32,0.55
			c-0.61,0.04-1.09-0.06-1.45-0.31c-0.36-0.25-0.51-0.72-0.47-1.41c0-0.25,0.02-0.53,0.06-0.85c0.04-0.31,0.09-0.63,0.14-0.94
			c0.05-0.31,0.11-0.62,0.19-0.91c0.07-0.29,0.15-0.53,0.24-0.72c0.15-0.36,0.35-0.66,0.61-0.93c0.26-0.26,0.54-0.36,0.83-0.3
			c0.29,0.06,0.46,0.24,0.5,0.52C167.15,24.6,167.15,24.92,167.11,25.28z M172.36,10.35c-0.06,0.61-0.13,1.41-0.19,2.4
			c-0.06,1-0.13,2.07-0.19,3.22c0.67-0.15,1.41-0.28,2.22-0.39c0.81-0.12,1.58-0.16,2.31-0.14c0.38,0.02,0.68,0.07,0.91,0.16
			c0.23,0.08,0.4,0.18,0.52,0.3c0.11,0.12,0.19,0.24,0.22,0.36c0.03,0.13,0.05,0.24,0.05,0.35c-0.02,0.27-0.19,0.44-0.5,0.5
			c-0.31,0.06-0.59,0.12-0.82,0.16c-0.4,0.04-0.76,0.09-1.1,0.16c-0.34,0.06-0.68,0.13-1.02,0.2c-0.35,0.07-0.7,0.15-1.05,0.24
			c-0.36,0.08-0.75,0.17-1.19,0.25c-0.21,0.04-0.43,0.06-0.66,0.06c-0.02,0.57-0.04,1.12-0.05,1.65c-0.01,0.53-0.03,1.04-0.05,1.52
			c-0.02,0.27-0.12,0.53-0.3,0.77c-0.18,0.24-0.4,0.35-0.68,0.33c-0.17,0-0.31-0.05-0.42-0.14c-0.12-0.09-0.21-0.21-0.28-0.35
			c-0.07-0.14-0.13-0.27-0.16-0.41c-0.03-0.14-0.05-0.25-0.05-0.33c-0.04-0.94-0.06-1.93-0.05-2.95c0.01-1.03,0.04-2.04,0.09-3.05
			c0.05-1.01,0.13-1.97,0.22-2.89c0.09-0.92,0.19-1.75,0.3-2.48c0.04-0.29,0.17-0.49,0.39-0.6c0.22-0.1,0.35-0.16,0.39-0.16
			c0.36-0.06,0.64,0.06,0.86,0.38C172.31,9.79,172.4,10.08,172.36,10.35z"/>
	</g>
	<g>
		
			<use xlink:href="#Rock_4"  width="49.44" height="34.24" x="-24.58" y="-16.99" transform="matrix(3.337549e-17 0.4318 0.3215 -1.559392e-17 30.9827 29.6168)" style="overflow:visible;"/>
		
			<use xlink:href="#Rock_4"  width="49.44" height="34.24" x="-24.58" y="-16.99" transform="matrix(3.337549e-17 0.4318 0.3215 -1.559392e-17 46.53 29.6168)" style="overflow:visible;"/>
		
			<use xlink:href="#Rock_4"  width="49.44" height="34.24" x="-24.58" y="-16.99" transform="matrix(1.0824 0 0 -0.6384 40.1762 14.7682)" style="overflow:visible;"/>
	</g>
</g>
<rect x="0.7" y="-0.25" class="st5" width="190" height="44.75"/>
</svg>
