<svg id="Layer_1" data-name="Layer 1" xmlns="http://www.w3.org/2000/svg" viewBox="0 0 200 40"><defs><style>.cls-1{fill:#9d9d9d;}</style></defs><title>09-logo-black</title><path class="cls-1" d="M42.636,12.8a.268.268,0,0,1,.3.3v2.114a.268.268,0,0,1-.3.3H31.79q-.327,0-.327-.3V13.105q0-.3.327-.3h3.9V9.909c0-.2.119-.3.353-.3h2.542c.218,0,.326.1.326.3V12.8ZM41.1,18.251a5.329,5.329,0,0,1,1.359,3.838A5.326,5.326,0,0,1,41.1,25.927a5.007,5.007,0,0,1-3.8,1.421,4.98,4.98,0,0,1-3.787-1.409,5.341,5.341,0,0,1-1.347-3.85,5.353,5.353,0,0,1,1.347-3.838A4.964,4.964,0,0,1,37.3,16.83,5.01,5.01,0,0,1,41.1,18.251Zm-2.227,5.775a3.213,3.213,0,0,0,.516-1.937,3.217,3.217,0,0,0-.516-1.937,1.792,1.792,0,0,0-1.547-.705,1.821,1.821,0,0,0-1.574.705,3.217,3.217,0,0,0-.515,1.937,3.213,3.213,0,0,0,.515,1.937,1.822,1.822,0,0,0,1.574.706A1.793,1.793,0,0,0,38.874,24.026ZM51.6,8.927c.2,0,.3.11.3.328V30.747a.266.266,0,0,1-.3.3H49.053a.266.266,0,0,1-.3-.3V20.4H46.839v9.663a.29.29,0,0,1-.327.328H44.02c-.2,0-.3-.11-.3-.328V9.733q0-.327.3-.327h2.492a.289.289,0,0,1,.327.327V17.56h1.912v-8.3c0-.218.1-.328.3-.328Z"/><path class="cls-1" d="M74.923,19.724q.327,0,.327.352v2.013a.289.289,0,0,1-.327.327H66.442V26.09a.293.293,0,0,1-.088.214.322.322,0,0,1-.239.089H63.548c-.218,0-.328-.1-.328-.3V22.416H54.286q-.3,0-.3-.327V20.076q0-.352.3-.352Zm-2.492,8.581c.236,0,.353.109.353.327v2.013c0,.219-.117.327-.353.327H57.357a.289.289,0,0,1-.327-.327V24.354a.29.29,0,0,1,.327-.328H59.9c.2,0,.3.11.3.328v3.951ZM59.168,17.018a3.754,3.754,0,0,1,0-6.454,9.8,9.8,0,0,1,5.438-1.233,9.777,9.777,0,0,1,5.448,1.233,3.766,3.766,0,0,1,0,6.454,9.7,9.7,0,0,1-5.448,1.246A9.721,9.721,0,0,1,59.168,17.018Zm2.316-4.579a1.526,1.526,0,0,0-.956,1.346,1.528,1.528,0,0,0,.968,1.346,6.976,6.976,0,0,0,3.11.516,6.964,6.964,0,0,0,3.12-.516,1.528,1.528,0,0,0,.955-1.346,1.527,1.527,0,0,0-.955-1.346,6.964,6.964,0,0,0-3.12-.516A6.962,6.962,0,0,0,61.484,12.439Z"/><path class="cls-1" d="M86.953,24.908v.075a.213.213,0,0,1-.051.152.437.437,0,0,1-.226.075,20.749,20.749,0,0,1-2.881.453q-1.775.176-3.359.176H77.163c-.217,0-.327-.1-.327-.3V11.721c0-.2.11-.3.327-.3h8.28a.266.266,0,0,1,.3.3v2.165a.266.266,0,0,1-.3.3H79.982V23.02h.805q1.207,0,2.756-.15t2.7-.379l.1-.025c.168,0,.269.1.3.3ZM96.038,8.927c.2,0,.3.11.3.328V30.747a.266.266,0,0,1-.3.3H93.5a.266.266,0,0,1-.3-.3V19.673H91.155V30.066c0,.218-.1.328-.3.328H88.362a.29.29,0,0,1-.327-.328V9.733a.289.289,0,0,1,.327-.327h2.491c.2,0,.3.109.3.327v7.1h2.038V9.255c0-.218.1-.328.3-.328Z"/><path class="cls-1" d="M116.621,19.17a.29.29,0,0,1-.328.327h-10.67a.289.289,0,0,1-.326-.327V10.262a.289.289,0,0,1,.326-.328h2.517c.2,0,.3.109.3.328v2.063h5.034V10.262a.289.289,0,0,1,.326-.328h2.491a.29.29,0,0,1,.328.328Zm7.851,9.865-.629,1.988a.364.364,0,0,1-.162.189.356.356,0,0,1-.241.038q-5.863-1.185-7.7-3.273a7.845,7.845,0,0,1-2.87,1.863,25.523,25.523,0,0,1-4.806,1.41l-.1.024a.3.3,0,0,1-.3-.251l-.629-1.988a.319.319,0,0,1-.026-.152.236.236,0,0,1,.2-.251,26.454,26.454,0,0,0,4.63-1.284,3.693,3.693,0,0,0,2.19-1.785h-5.863a.29.29,0,0,1-.328-.328V23.2a.289.289,0,0,1,.328-.326h6.014V21.033a.267.267,0,0,1,.3-.3h2.592c.218,0,.328.1.328.3V22.87h5.938c.2,0,.3.108.3.326v2.039c0,.218-.1.328-.3.328h-5.788a3.53,3.53,0,0,0,2.126,1.773,27.508,27.508,0,0,0,4.593,1.3C124.489,28.665,124.556,28.8,124.472,29.035Zm-16.03-14.118v1.988h5.034V14.917ZM120.4,21.083c-.219,0-.327-.1-.327-.3V9.255a.289.289,0,0,1,.327-.328h2.541c.234,0,.353.11.353.328V20.78c0,.2-.119.3-.353.3Z"/><path class="cls-1" d="M147.122,19.648c.217,0,.327.118.327.353v2.013a.289.289,0,0,1-.327.326h-8.708v1.787h5.739c.217,0,.327.1.327.3v6.543c0,.2-.11.3-.327.3h-2.567c-.219,0-.327-.1-.327-.3V26.82h-12.08a.288.288,0,0,1-.326-.326V24.429c0-.2.108-.3.326-.3h6.014V22.34h-8.707c-.2,0-.3-.108-.3-.326V20q0-.353.3-.353Zm-18.95-3v-.125c0-.168.059-.261.176-.277a21.228,21.228,0,0,0,4.959-1.322q1.787-.792,1.886-1.7h-6.014c-.218,0-.326-.1-.326-.3V10.89c0-.234.108-.352.326-.352h6.014V9.054c0-.218.1-.328.3-.328h2.618a.29.29,0,0,1,.327.328v1.484h5.989c.2,0,.3.118.3.352v2.039a.267.267,0,0,1-.3.3H138.44q.1.906,1.874,1.7a20.97,20.97,0,0,0,4.92,1.322c.185.016.243.151.177.4l-.479,1.989q-.073.276-.428.226a21.416,21.416,0,0,1-4.352-1.057,13.232,13.232,0,0,1-3.347-1.711,12.546,12.546,0,0,1-3.322,1.7,23.246,23.246,0,0,1-4.354,1.07h-.1a.294.294,0,0,1-.3-.226Z"/><path class="cls-1" d="M155.577,15.219a11.838,11.838,0,0,0,1.045,4.882,11.574,11.574,0,0,0,2.831,3.951.39.39,0,0,1,.126.276.314.314,0,0,1-.1.227l-1.535,1.485a.384.384,0,0,1-.276.126.363.363,0,0,1-.253-.126,15.849,15.849,0,0,1-1.937-2.365,15.67,15.67,0,0,1-1.46-2.693,13.954,13.954,0,0,1-1.422,2.843,17.465,17.465,0,0,1-2.126,2.693.308.308,0,0,1-.251.126.383.383,0,0,1-.277-.126L148.4,25.034a.269.269,0,0,1-.1-.227.384.384,0,0,1,.126-.276,13.251,13.251,0,0,0,2.957-4.291,12.592,12.592,0,0,0,1.045-5.021V13.936h-3.146a.29.29,0,0,1-.328-.328V11.394c0-.2.11-.3.328-.3h9.159c.236,0,.353.1.353.3v2.214c0,.219-.117.328-.353.328h-2.868ZM163.4,9.406q.3,0,.3.327V30.066c0,.218-.1.328-.3.328h-2.492c-.2,0-.3-.11-.3-.328V18.843h-2.593a.311.311,0,0,1-.352-.352V16.326a.311.311,0,0,1,.352-.352h2.593V9.733q0-.327.3-.327Zm4.831-.479c.2,0,.3.11.3.328V30.747a.266.266,0,0,1-.3.3h-2.543a.266.266,0,0,1-.3-.3V9.255c0-.218.1-.328.3-.328Z"/></svg>